<?xml version="1.0" standalone="no"?>
<!DOCTYPE svg PUBLIC "-//W3C//DTD SVG 20010904//EN"
 "http://www.w3.org/TR/2001/REC-SVG-20010904/DTD/svg10.dtd">
<svg version="1.0" xmlns="http://www.w3.org/2000/svg"
 width="477.000000pt" height="477.000000pt" viewBox="0 0 477.000000 477.000000"
 preserveAspectRatio="xMidYMid meet">

<g transform="translate(0.000000,477.000000) scale(0.100000,-0.100000)"
fill="#000000" stroke="none">
<path d="M0 4736 c0 -18 7 -39 15 -46 19 -16 19 -30 0 -30 -13 0 -15 -139 -15
-1194 0 -1049 2 -1195 15 -1206 19 -16 19 -30 0 -30 -13 0 -15 -131 -15 -1115
l0 -1115 2385 0 2385 0 0 2385 0 2385 -2385 0 -2385 0 0 -34z m850 15 c0 -5
-9 -12 -20 -16 -44 -14 -46 -130 -2 -150 27 -12 29 -25 3 -25 -11 0 -29 12
-41 28 -30 37 -24 126 10 154 24 19 50 24 50 9z m244 -10 c26 -29 37 -80 26
-122 -12 -45 -31 -62 -62 -56 -23 4 -23 5 -2 12 26 8 44 45 44 88 0 37 -24 77
-46 77 -8 0 -14 5 -14 10 0 17 36 11 54 -9z m-516 -78 l3 -80 -45 -1 c-35 -1
-48 3 -56 18 -26 48 6 109 49 95 18 -5 21 -2 21 25 0 21 4 30 13 28 8 -3 13
-32 15 -85z m1914 15 c3 -67 5 -73 26 -76 33 -5 27 -22 -8 -22 -37 0 -50 27
-50 101 0 37 -4 49 -15 49 -8 0 -15 5 -15 10 0 6 13 10 30 10 l29 0 3 -72z
m1088 41 c0 -26 3 -29 20 -24 32 10 60 -12 60 -47 0 -42 -25 -68 -67 -68 l-33
0 0 85 c0 50 4 85 10 85 6 0 10 -14 10 -31z m-2599 11 c21 -12 26 -59 7 -78
-9 -9 -9 -18 0 -37 15 -31 15 -35 2 -35 -5 0 -16 14 -25 30 -9 17 -22 30 -30
30 -10 0 -15 -10 -15 -30 0 -20 -5 -30 -15 -30 -12 0 -15 15 -15 73 0 41 3 77
7 80 10 11 62 8 84 -3z m1277 -8 c3 -9 -3 -11 -22 -6 -36 9 -56 -11 -56 -55 0
-44 14 -61 52 -61 15 0 28 -4 28 -10 0 -19 -69 -11 -90 10 -46 46 -5 146 57
138 15 -2 28 -9 31 -16z m929 -34 l18 -53 5 49 c3 27 11 51 18 54 9 3 12 -17
12 -78 0 -72 -2 -81 -17 -78 -11 2 -26 24 -38 58 l-20 55 -3 -57 c-5 -87 -22
-69 -22 22 0 98 19 108 47 28z m1303 4 c0 -26 5 -53 12 -60 9 -9 9 -12 0 -12
-7 0 -12 -9 -12 -20 0 -11 -4 -20 -10 -20 -5 0 -10 9 -10 20 0 17 -7 20 -40
20 -22 0 -40 2 -40 5 0 2 5 27 11 55 14 63 34 68 25 5 -7 -43 -6 -45 18 -45
24 0 26 3 26 50 0 28 5 50 10 50 6 0 10 -22 10 -48z m-2850 23 c0 -9 9 -15 24
-15 14 0 28 -4 31 -10 4 -6 -7 -10 -25 -10 -30 0 -31 -2 -28 -37 3 -33 7 -38
31 -41 36 -4 35 -22 -1 -22 -38 0 -52 17 -52 62 0 27 -4 38 -15 38 -8 0 -15 5
-15 10 0 6 7 10 15 10 8 0 15 7 15 15 0 8 5 15 10 15 6 0 10 -7 10 -15z
m-1405 -25 c4 -6 13 -5 25 2 14 9 22 9 34 -1 9 -8 16 -17 16 -22 0 -14 -28
-11 -33 4 -3 9 -7 9 -20 -2 -22 -17 -23 -71 -2 -71 8 0 15 -4 15 -10 0 -5 -18
-10 -40 -10 -22 0 -40 5 -40 10 0 6 5 10 10 10 6 0 10 18 10 40 0 22 -4 40
-10 40 -5 0 -10 5 -10 10 0 13 37 13 45 0z m187 -7 c10 -9 18 -24 18 -35 0
-14 -8 -18 -41 -18 -49 0 -50 -23 -1 -28 43 -4 41 -22 -2 -22 -40 0 -59 20
-59 62 0 51 48 74 85 41z m980 0 c10 -9 18 -24 18 -35 0 -14 -8 -18 -41 -18
-49 0 -50 -23 -1 -28 43 -4 41 -22 -2 -22 -40 0 -59 20 -59 62 0 51 48 74 85
41z m144 4 c4 -4 9 -29 12 -57 4 -41 2 -50 -12 -50 -12 0 -16 10 -16 44 0 25
-5 48 -10 51 -20 12 -40 -17 -40 -56 0 -22 -4 -39 -10 -39 -6 0 -10 26 -10 59
l0 59 40 -2 c22 -1 42 -5 46 -9z m276 -4 c10 -9 18 -24 18 -35 0 -14 -8 -18
-41 -18 -49 0 -50 -23 -1 -28 43 -4 41 -22 -2 -22 -40 0 -59 20 -59 62 0 51
48 74 85 41z m93 7 c4 -6 13 -5 25 2 14 9 22 9 34 -1 9 -8 16 -17 16 -22 0
-14 -28 -11 -33 4 -3 9 -7 9 -20 -2 -22 -17 -23 -71 -2 -71 8 0 15 -4 15 -10
0 -5 -18 -10 -40 -10 -22 0 -40 5 -40 10 0 6 5 10 10 10 6 0 10 18 10 40 0 22
-4 40 -10 40 -5 0 -10 5 -10 10 0 13 37 13 45 0z m467 -7 c38 -34 13 -103 -36
-103 -31 0 -49 24 -49 62 0 51 48 74 85 41z m220 -30 c3 -40 6 -48 23 -48 17
0 20 8 23 48 4 63 22 61 22 -3 0 -27 5 -50 10 -50 6 0 10 -4 10 -10 0 -5 -24
-8 -52 -7 l-53 2 -3 58 c-2 33 1 57 7 57 5 0 11 -21 13 -47z m216 -16 c2 -35
-1 -57 -8 -57 -5 0 -10 22 -10 50 0 28 -4 50 -10 50 -5 0 -10 -22 -10 -50 0
-27 -4 -50 -10 -50 -5 0 -10 23 -10 50 0 28 -4 50 -10 50 -5 0 -10 -22 -10
-50 0 -38 -4 -50 -15 -50 -12 0 -15 13 -15 59 l0 59 53 -2 52 -1 3 -58z m128
50 c4 -4 9 -29 12 -57 4 -41 2 -50 -12 -50 -12 0 -16 10 -16 44 0 25 -5 48
-10 51 -20 12 -40 -17 -40 -56 0 -22 -4 -39 -10 -39 -6 0 -10 26 -10 59 l0 59
40 -2 c22 -1 42 -5 46 -9z m356 -34 c3 -40 6 -48 23 -48 17 0 20 8 23 48 4 63
22 61 22 -3 0 -27 5 -50 10 -50 6 0 10 -4 10 -10 0 -5 -24 -8 -52 -7 l-53 2
-3 58 c-2 33 1 57 7 57 5 0 11 -21 13 -47z m216 -16 c2 -35 -1 -57 -8 -57 -5
0 -10 22 -10 50 0 28 -4 50 -10 50 -5 0 -10 -22 -10 -50 0 -27 -4 -50 -10 -50
-5 0 -10 23 -10 50 0 28 -4 50 -10 50 -5 0 -10 -22 -10 -50 0 -38 -4 -50 -15
-50 -12 0 -15 13 -15 59 l0 59 53 -2 52 -1 3 -58z m264 46 c10 -9 18 -24 18
-35 0 -14 -8 -18 -41 -18 -49 0 -50 -23 -1 -28 43 -4 41 -22 -2 -22 -40 0 -59
20 -59 62 0 51 48 74 85 41z m93 7 c4 -6 13 -5 25 2 14 9 22 9 34 -1 9 -8 16
-17 16 -22 0 -14 -28 -11 -33 4 -3 9 -7 9 -20 -2 -22 -17 -23 -71 -2 -71 8 0
15 -4 15 -10 0 -5 -18 -10 -40 -10 -22 0 -40 5 -40 10 0 6 5 10 10 10 6 0 10
18 10 40 0 22 -4 40 -10 40 -5 0 -10 5 -10 10 0 13 37 13 45 0z m305 -5 c0 -8
-7 -15 -15 -15 -16 0 -20 12 -8 23 11 12 23 8 23 -8z m0 -90 c0 -8 -7 -15 -15
-15 -16 0 -20 12 -8 23 11 12 23 8 23 -8z m-3640 -481 c0 -88 -3 -115 -12
-112 -9 3 -14 35 -16 103 -3 102 0 125 18 125 6 0 10 -43 10 -116z m560 0 c0
-88 -3 -115 -12 -112 -9 3 -14 35 -16 103 -3 102 0 125 18 125 6 0 10 -43 10
-116z m560 0 c0 -88 -3 -115 -12 -112 -9 3 -14 35 -16 103 -3 102 0 125 18
125 6 0 10 -43 10 -116z m560 0 c0 -88 -3 -115 -12 -112 -9 3 -14 35 -16 103
-3 102 0 125 18 125 6 0 10 -43 10 -116z m560 0 c0 -88 -3 -115 -12 -112 -9 3
-14 35 -16 103 -3 102 0 125 18 125 6 0 10 -43 10 -116z m560 0 c0 -88 -3
-115 -12 -112 -9 3 -14 35 -16 103 -3 102 0 125 18 125 6 0 10 -43 10 -116z
m-3040 -84 c0 -5 -25 -10 -55 -10 -30 0 -55 5 -55 10 0 6 25 10 55 10 30 0 55
-4 55 -10z m560 0 c0 -5 -25 -10 -55 -10 -30 0 -55 5 -55 10 0 6 25 10 55 10
30 0 55 -4 55 -10z m560 0 c0 -5 -25 -10 -55 -10 -30 0 -55 5 -55 10 0 6 25
10 55 10 30 0 55 -4 55 -10z m560 0 c0 -5 -25 -10 -55 -10 -30 0 -55 5 -55 10
0 6 25 10 55 10 30 0 55 -4 55 -10z m560 0 c0 -5 -25 -10 -55 -10 -30 0 -55 5
-55 10 0 6 25 10 55 10 30 0 55 -4 55 -10z m560 0 c0 -5 -25 -10 -55 -10 -30
0 -55 5 -55 10 0 6 25 10 55 10 30 0 55 -4 55 -10z m-2560 -186 c0 -88 -3
-115 -12 -112 -9 3 -14 35 -16 103 -3 102 0 125 18 125 6 0 10 -43 10 -116z
m560 0 c0 -88 -3 -115 -12 -112 -9 3 -14 35 -16 103 -3 102 0 125 18 125 6 0
10 -43 10 -116z m560 0 c0 -88 -3 -115 -12 -112 -9 3 -14 35 -16 103 -3 102 0
125 18 125 6 0 10 -43 10 -116z m560 0 c0 -88 -3 -115 -12 -112 -9 3 -14 35
-16 103 -3 102 0 125 18 125 6 0 10 -43 10 -116z m560 0 c0 -88 -3 -115 -12
-112 -9 3 -14 35 -16 103 -3 102 0 125 18 125 6 0 10 -43 10 -116z m560 0 c0
-88 -3 -115 -12 -112 -9 3 -14 35 -16 103 -3 102 0 125 18 125 6 0 10 -43 10
-116z m-3040 -84 c0 -5 -25 -10 -55 -10 -30 0 -55 5 -55 10 0 6 25 10 55 10
30 0 55 -4 55 -10z m560 0 c0 -5 -25 -10 -55 -10 -30 0 -55 5 -55 10 0 6 25
10 55 10 30 0 55 -4 55 -10z m560 0 c0 -5 -25 -10 -55 -10 -30 0 -55 5 -55 10
0 6 25 10 55 10 30 0 55 -4 55 -10z m560 0 c0 -5 -25 -10 -55 -10 -30 0 -55 5
-55 10 0 6 25 10 55 10 30 0 55 -4 55 -10z m560 0 c0 -5 -25 -10 -55 -10 -30
0 -55 5 -55 10 0 6 25 10 55 10 30 0 55 -4 55 -10z m560 0 c0 -5 -25 -10 -55
-10 -30 0 -55 5 -55 10 0 6 25 10 55 10 30 0 55 -4 55 -10z m-2560 -186 c0
-88 -3 -115 -12 -112 -9 3 -14 35 -16 103 -3 102 0 125 18 125 6 0 10 -43 10
-116z m560 0 c0 -88 -3 -115 -12 -112 -9 3 -14 35 -16 103 -3 102 0 125 18
125 6 0 10 -43 10 -116z m560 0 c0 -88 -3 -115 -12 -112 -9 3 -14 35 -16 103
-3 102 0 125 18 125 6 0 10 -43 10 -116z m560 0 c0 -88 -3 -115 -12 -112 -9 3
-14 35 -16 103 -3 102 0 125 18 125 6 0 10 -43 10 -116z m560 0 c0 -88 -3
-115 -12 -112 -9 3 -14 35 -16 103 -3 102 0 125 18 125 6 0 10 -43 10 -116z
m560 0 c0 -88 -3 -115 -12 -112 -9 3 -14 35 -16 103 -3 102 0 125 18 125 6 0
10 -43 10 -116z m-1939 76 c21 -12 26 -59 7 -78 -9 -9 -9 -18 0 -37 15 -31 15
-35 2 -35 -5 0 -16 14 -25 30 -9 17 -22 30 -30 30 -10 0 -15 -10 -15 -30 0
-20 -5 -30 -15 -30 -12 0 -15 15 -15 73 0 41 3 77 7 80 10 11 62 8 84 -3z
m-1101 -160 c0 -5 -25 -10 -55 -10 -30 0 -55 5 -55 10 0 6 25 10 55 10 30 0
55 -4 55 -10z m560 0 c0 -5 -25 -10 -55 -10 -30 0 -55 5 -55 10 0 6 25 10 55
10 30 0 55 -4 55 -10z m1120 0 c0 -5 -25 -10 -55 -10 -30 0 -55 5 -55 10 0 6
25 10 55 10 30 0 55 -4 55 -10z m560 0 c0 -5 -25 -10 -55 -10 -30 0 -55 5 -55
10 0 6 25 10 55 10 30 0 55 -4 55 -10z m560 0 c0 -5 -25 -10 -55 -10 -30 0
-55 5 -55 10 0 6 25 10 55 10 30 0 55 -4 55 -10z m-2560 -186 c0 -88 -3 -115
-12 -112 -9 3 -14 35 -16 103 -3 102 0 125 18 125 6 0 10 -43 10 -116z m560 0
c0 -88 -3 -115 -12 -112 -9 3 -14 35 -16 103 -3 102 0 125 18 125 6 0 10 -43
10 -116z m560 0 c0 -88 -3 -115 -12 -112 -9 3 -14 35 -16 103 -3 102 0 125 18
125 6 0 10 -43 10 -116z m560 0 c0 -88 -3 -115 -12 -112 -9 3 -14 35 -16 103
-3 102 0 125 18 125 6 0 10 -43 10 -116z m560 0 c0 -88 -3 -115 -12 -112 -9 3
-14 35 -16 103 -3 102 0 125 18 125 6 0 10 -43 10 -116z m560 0 c0 -88 -3
-115 -12 -112 -9 3 -14 35 -16 103 -3 102 0 125 18 125 6 0 10 -43 10 -116z
m-2553 44 l20 -43 22 43 c12 23 26 42 31 42 6 0 -1 -22 -15 -50 -14 -27 -25
-63 -25 -80 0 -20 -5 -30 -15 -30 -10 0 -15 10 -15 30 0 17 -9 48 -20 70 -21
42 -25 60 -12 60 4 0 17 -19 29 -42z m560 0 l20 -43 22 43 c12 23 26 42 31 42
6 0 -1 -22 -15 -50 -14 -27 -25 -63 -25 -80 0 -20 -5 -30 -15 -30 -10 0 -15
10 -15 30 0 17 -9 48 -20 70 -21 42 -25 60 -12 60 4 0 17 -19 29 -42z m614 32
c21 -12 26 -59 7 -78 -9 -9 -9 -18 0 -37 15 -31 15 -35 2 -35 -5 0 -16 14 -25
30 -9 17 -22 30 -30 30 -10 0 -15 -10 -15 -30 0 -20 -5 -30 -15 -30 -12 0 -15
15 -15 73 0 41 3 77 7 80 10 11 62 8 84 -3z m-1661 -160 c0 -5 -25 -10 -55
-10 -30 0 -55 5 -55 10 0 6 25 10 55 10 30 0 55 -4 55 -10z m2240 0 c0 -5 -25
-10 -55 -10 -30 0 -55 5 -55 10 0 6 25 10 55 10 30 0 55 -4 55 -10z m560 0 c0
-5 -25 -10 -55 -10 -30 0 -55 5 -55 10 0 6 25 10 55 10 30 0 55 -4 55 -10z
m-2560 -186 c0 -88 -3 -115 -12 -112 -9 3 -14 35 -16 103 -3 102 0 125 18 125
6 0 10 -43 10 -116z m560 0 c0 -88 -3 -115 -12 -112 -9 3 -14 35 -16 103 -3
102 0 125 18 125 6 0 10 -43 10 -116z m560 0 c0 -88 -3 -115 -12 -112 -9 3
-14 35 -16 103 -3 102 0 125 18 125 6 0 10 -43 10 -116z m560 0 c0 -88 -3
-115 -12 -112 -9 3 -14 35 -16 103 -3 102 0 125 18 125 6 0 10 -43 10 -116z
m560 0 c0 -88 -3 -115 -12 -112 -9 3 -14 35 -16 103 -3 102 0 125 18 125 6 0
10 -43 10 -116z m560 0 c0 -88 -3 -115 -12 -112 -9 3 -14 35 -16 103 -3 102 0
125 18 125 6 0 10 -43 10 -116z m-3113 44 l20 -43 22 43 c12 23 26 42 31 42 6
0 -1 -22 -15 -50 -14 -27 -25 -63 -25 -80 0 -20 -5 -30 -15 -30 -10 0 -15 10
-15 30 0 17 -9 48 -20 70 -21 42 -25 60 -12 60 4 0 17 -19 29 -42z m614 32
c21 -12 26 -59 7 -78 -9 -9 -9 -18 0 -37 15 -31 15 -35 2 -35 -5 0 -16 14 -25
30 -9 17 -22 30 -30 30 -10 0 -15 -10 -15 -30 0 -20 -5 -30 -15 -30 -12 0 -15
15 -15 73 0 41 3 77 7 80 10 11 62 8 84 -3z m560 0 c21 -12 26 -59 7 -78 -9
-9 -9 -18 0 -37 15 -31 15 -35 2 -35 -5 0 -16 14 -25 30 -9 17 -22 30 -30 30
-10 0 -15 -10 -15 -30 0 -20 -5 -30 -15 -30 -12 0 -15 15 -15 73 0 41 3 77 7
80 10 11 62 8 84 -3z m506 -32 l20 -43 22 43 c12 23 26 42 31 42 6 0 -1 -22
-15 -50 -14 -27 -25 -63 -25 -80 0 -20 -5 -30 -15 -30 -10 0 -15 10 -15 30 0
17 -9 48 -20 70 -21 42 -25 60 -12 60 4 0 17 -19 29 -42z m633 -128 c0 -5 -25
-10 -55 -10 -30 0 -55 5 -55 10 0 6 25 10 55 10 30 0 55 -4 55 -10z m560 0 c0
-5 -25 -10 -55 -10 -30 0 -55 5 -55 10 0 6 25 10 55 10 30 0 55 -4 55 -10z
m-2560 -186 c0 -88 -3 -115 -12 -112 -9 3 -14 35 -16 103 -3 102 0 125 18 125
6 0 10 -43 10 -116z m560 0 c0 -88 -3 -115 -12 -112 -9 3 -14 35 -16 103 -3
102 0 125 18 125 6 0 10 -43 10 -116z m560 0 c0 -88 -3 -115 -12 -112 -9 3
-14 35 -16 103 -3 102 0 125 18 125 6 0 10 -43 10 -116z m560 0 c0 -88 -3
-115 -12 -112 -9 3 -14 35 -16 103 -3 102 0 125 18 125 6 0 10 -43 10 -116z
m560 0 c0 -88 -3 -115 -12 -112 -9 3 -14 35 -16 103 -3 102 0 125 18 125 6 0
10 -43 10 -116z m560 0 c0 -88 -3 -115 -12 -112 -9 3 -14 35 -16 103 -3 102 0
125 18 125 6 0 10 -43 10 -116z m-3059 76 c21 -12 26 -59 7 -78 -9 -9 -9 -18
0 -37 15 -31 15 -35 2 -35 -5 0 -16 14 -25 30 -9 17 -22 30 -30 30 -10 0 -15
-10 -15 -30 0 -20 -5 -30 -15 -30 -12 0 -15 15 -15 73 0 41 3 77 7 80 10 11
62 8 84 -3z m506 -32 l20 -43 22 43 c12 23 26 42 31 42 6 0 -1 -22 -15 -50
-14 -27 -25 -63 -25 -80 0 -20 -5 -30 -15 -30 -10 0 -15 10 -15 30 0 17 -9 48
-20 70 -21 42 -25 60 -12 60 4 0 17 -19 29 -42z m614 32 c21 -12 26 -59 7 -78
-9 -9 -9 -18 0 -37 15 -31 15 -35 2 -35 -5 0 -16 14 -25 30 -9 17 -22 30 -30
30 -10 0 -15 -10 -15 -30 0 -20 -5 -30 -15 -30 -12 0 -15 15 -15 73 0 41 3 77
7 80 10 11 62 8 84 -3z m506 -32 l20 -43 22 43 c12 23 26 42 31 42 6 0 -1 -22
-15 -50 -14 -27 -25 -63 -25 -80 0 -20 -5 -30 -15 -30 -10 0 -15 10 -15 30 0
17 -9 48 -20 70 -21 42 -25 60 -12 60 4 0 17 -19 29 -42z m1174 32 c21 -12 26
-59 7 -78 -9 -9 -9 -18 0 -37 15 -31 15 -35 2 -35 -5 0 -16 14 -25 30 -9 17
-22 30 -30 30 -10 0 -15 -10 -15 -30 0 -20 -5 -30 -15 -30 -12 0 -15 15 -15
73 0 41 3 77 7 80 10 11 62 8 84 -3z m-541 -160 c0 -5 -25 -10 -55 -10 -30 0
-55 5 -55 10 0 6 25 10 55 10 30 0 55 -4 55 -10z m-1270 -359 c0 -5 -9 -12
-20 -16 -44 -14 -46 -130 -2 -150 27 -12 29 -25 3 -25 -11 0 -29 12 -41 28
-30 37 -24 126 10 154 24 19 50 24 50 9z m244 -10 c26 -29 37 -80 26 -122 -12
-45 -31 -62 -62 -56 -23 4 -23 5 -2 12 26 8 44 45 44 88 0 37 -24 77 -46 77
-8 0 -14 5 -14 10 0 17 36 11 54 -9z m-982 -63 c3 -67 5 -73 26 -76 33 -5 27
-22 -8 -22 -37 0 -50 27 -50 101 0 37 -4 49 -15 49 -8 0 -15 5 -15 10 0 6 13
10 30 10 l29 0 3 -72z m140 0 c3 -67 5 -73 26 -76 33 -5 27 -22 -8 -22 -37 0
-50 27 -50 101 0 37 -4 49 -15 49 -8 0 -15 5 -15 10 0 6 13 10 30 10 l29 0 3
-72z m2240 0 c3 -67 5 -73 26 -76 33 -5 27 -22 -8 -22 -37 0 -50 27 -50 101 0
37 -4 49 -15 49 -8 0 -15 5 -15 10 0 6 13 10 30 10 l29 0 3 -72z m1088 41 c0
-26 3 -29 20 -24 32 10 60 -12 60 -47 0 -42 -25 -68 -67 -68 l-33 0 0 85 c0
50 4 85 10 85 6 0 10 -14 10 -31z m-2653 -21 l20 -43 22 43 c12 23 26 42 31
42 6 0 -1 -22 -15 -50 -14 -27 -25 -63 -25 -80 0 -20 -5 -30 -15 -30 -10 0
-15 10 -15 30 0 17 -9 48 -20 70 -21 42 -25 60 -12 60 4 0 17 -19 29 -42z
m1331 24 c3 -9 -3 -11 -22 -6 -36 9 -56 -11 -56 -55 0 -44 14 -61 52 -61 15 0
28 -4 28 -10 0 -19 -69 -11 -90 10 -46 46 -5 146 57 138 15 -2 28 -9 31 -16z
m929 -34 l18 -53 5 49 c3 27 11 51 18 54 9 3 12 -17 12 -78 0 -72 -2 -81 -17
-78 -11 2 -26 24 -38 58 l-20 55 -3 -57 c-5 -87 -22 -69 -22 22 0 98 19 108
47 28z m-1547 27 c0 -9 9 -15 24 -15 14 0 28 -4 31 -10 4 -6 -7 -10 -25 -10
-30 0 -31 -2 -28 -37 3 -33 7 -38 31 -41 36 -4 35 -22 -1 -22 -38 0 -52 17
-52 62 0 27 -4 38 -15 38 -8 0 -15 5 -15 10 0 6 7 10 15 10 8 0 15 7 15 15 0
8 5 15 10 15 6 0 10 -7 10 -15z m-1832 -63 c7 -23 17 -42 21 -42 4 0 12 20 19
45 7 25 16 45 22 45 13 0 13 -2 -6 -65 -18 -63 -48 -105 -75 -105 -10 0 -19 5
-19 10 0 6 6 10 13 10 32 0 35 22 11 81 -27 67 -28 72 -12 67 6 -2 18 -23 26
-46z m194 31 c10 -9 18 -24 18 -35 0 -14 -8 -18 -41 -18 -49 0 -50 -23 -1 -28
43 -4 41 -22 -2 -22 -40 0 -59 20 -59 62 0 51 48 74 85 41z m420 0 c38 -34 13
-103 -36 -103 -31 0 -49 24 -49 62 0 51 48 74 85 41z m68 -2 c0 -11 3 -28 7
-38 6 -14 9 -11 13 16 6 43 30 54 30 14 0 -15 5 -35 10 -43 7 -11 10 -3 10 28
0 31 4 42 13 39 12 -4 12 -18 1 -84 -7 -46 -29 -41 -41 10 -8 32 -11 36 -12
15 -3 -66 -35 -80 -45 -20 -9 54 -7 82 4 82 6 0 10 -9 10 -19z m912 2 c10 -9
18 -24 18 -35 0 -14 -8 -18 -41 -18 -49 0 -50 -23 -1 -28 43 -4 41 -22 -2 -22
-40 0 -59 20 -59 62 0 51 48 74 85 41z m144 4 c4 -4 9 -29 12 -57 4 -41 2 -50
-12 -50 -12 0 -16 10 -16 44 0 25 -5 48 -10 51 -20 12 -40 -17 -40 -56 0 -22
-4 -39 -10 -39 -6 0 -10 26 -10 59 l0 59 40 -2 c22 -1 42 -5 46 -9z m276 -4
c10 -9 18 -24 18 -35 0 -14 -8 -18 -41 -18 -49 0 -50 -23 -1 -28 43 -4 41 -22
-2 -22 -40 0 -59 20 -59 62 0 51 48 74 85 41z m93 7 c4 -6 13 -5 25 2 14 9 22
9 34 -1 9 -8 16 -17 16 -22 0 -14 -28 -11 -33 4 -3 9 -7 9 -20 -2 -22 -17 -23
-71 -2 -71 8 0 15 -4 15 -10 0 -5 -18 -10 -40 -10 -22 0 -40 5 -40 10 0 6 5
10 10 10 6 0 10 18 10 40 0 22 -4 40 -10 40 -5 0 -10 5 -10 10 0 13 37 13 45
0z m467 -7 c38 -34 13 -103 -36 -103 -31 0 -49 24 -49 62 0 51 48 74 85 41z
m220 -30 c3 -40 6 -48 23 -48 17 0 20 8 23 48 4 63 22 61 22 -3 0 -27 5 -50
10 -50 6 0 10 -4 10 -10 0 -5 -24 -8 -52 -7 l-53 2 -3 58 c-2 33 1 57 7 57 5
0 11 -21 13 -47z m216 -16 c2 -35 -1 -57 -8 -57 -5 0 -10 22 -10 50 0 28 -4
50 -10 50 -5 0 -10 -22 -10 -50 0 -27 -4 -50 -10 -50 -5 0 -10 23 -10 50 0 28
-4 50 -10 50 -5 0 -10 -22 -10 -50 0 -38 -4 -50 -15 -50 -12 0 -15 13 -15 59
l0 59 53 -2 52 -1 3 -58z m128 50 c4 -4 9 -29 12 -57 4 -41 2 -50 -12 -50 -12
0 -16 10 -16 44 0 25 -5 48 -10 51 -20 12 -40 -17 -40 -56 0 -22 -4 -39 -10
-39 -6 0 -10 26 -10 59 l0 59 40 -2 c22 -1 42 -5 46 -9z m356 -34 c3 -40 6
-48 23 -48 17 0 20 8 23 48 4 63 22 61 22 -3 0 -27 5 -50 10 -50 6 0 10 -4 10
-10 0 -5 -24 -8 -52 -7 l-53 2 -3 58 c-2 33 1 57 7 57 5 0 11 -21 13 -47z
m216 -16 c2 -35 -1 -57 -8 -57 -5 0 -10 22 -10 50 0 28 -4 50 -10 50 -5 0 -10
-22 -10 -50 0 -27 -4 -50 -10 -50 -5 0 -10 23 -10 50 0 28 -4 50 -10 50 -5 0
-10 -22 -10 -50 0 -38 -4 -50 -15 -50 -12 0 -15 13 -15 59 l0 59 53 -2 52 -1
3 -58z m264 46 c10 -9 18 -24 18 -35 0 -14 -8 -18 -41 -18 -49 0 -50 -23 -1
-28 43 -4 41 -22 -2 -22 -40 0 -59 20 -59 62 0 51 48 74 85 41z m93 7 c4 -6
13 -5 25 2 14 9 22 9 34 -1 9 -8 16 -17 16 -22 0 -14 -28 -11 -33 4 -3 9 -7 9
-20 -2 -22 -17 -23 -71 -2 -71 8 0 15 -4 15 -10 0 -5 -18 -10 -40 -10 -22 0
-40 5 -40 10 0 6 5 10 10 10 6 0 10 18 10 40 0 22 -4 40 -10 40 -5 0 -10 5
-10 10 0 13 37 13 45 0z m305 -5 c0 -8 -7 -15 -15 -15 -16 0 -20 12 -8 23 11
12 23 8 23 -8z m0 -90 c0 -8 -7 -15 -15 -15 -16 0 -20 12 -8 23 11 12 23 8 23
-8z m-4060 -481 c0 -88 -3 -115 -12 -112 -9 3 -14 35 -16 103 -3 102 0 125 18
125 6 0 10 -43 10 -116z m560 0 c0 -88 -3 -115 -12 -112 -9 3 -14 35 -16 103
-3 102 0 125 18 125 6 0 10 -43 10 -116z m560 0 c0 -88 -3 -115 -12 -112 -9 3
-14 35 -16 103 -3 102 0 125 18 125 6 0 10 -43 10 -116z m560 0 c0 -88 -3
-115 -12 -112 -9 3 -14 35 -16 103 -3 102 0 125 18 125 6 0 10 -43 10 -116z
m560 0 c0 -88 -3 -115 -12 -112 -9 3 -14 35 -16 103 -3 102 0 125 18 125 6 0
10 -43 10 -116z m560 0 c0 -88 -3 -115 -12 -112 -9 3 -14 35 -16 103 -3 102 0
125 18 125 6 0 10 -43 10 -116z m-3040 -84 c0 -5 -25 -10 -55 -10 -30 0 -55 5
-55 10 0 6 25 10 55 10 30 0 55 -4 55 -10z m560 0 c0 -5 -25 -10 -55 -10 -30
0 -55 5 -55 10 0 6 25 10 55 10 30 0 55 -4 55 -10z m560 0 c0 -5 -25 -10 -55
-10 -30 0 -55 5 -55 10 0 6 25 10 55 10 30 0 55 -4 55 -10z m560 0 c0 -5 -25
-10 -55 -10 -30 0 -55 5 -55 10 0 6 25 10 55 10 30 0 55 -4 55 -10z m560 0 c0
-5 -25 -10 -55 -10 -30 0 -55 5 -55 10 0 6 25 10 55 10 30 0 55 -4 55 -10z
m560 0 c0 -5 -25 -10 -55 -10 -30 0 -55 5 -55 10 0 6 25 10 55 10 30 0 55 -4
55 -10z m-2560 -186 c0 -88 -3 -115 -12 -112 -9 3 -14 35 -16 103 -3 102 0
125 18 125 6 0 10 -43 10 -116z m560 0 c0 -88 -3 -115 -12 -112 -9 3 -14 35
-16 103 -3 102 0 125 18 125 6 0 10 -43 10 -116z m560 0 c0 -88 -3 -115 -12
-112 -9 3 -14 35 -16 103 -3 102 0 125 18 125 6 0 10 -43 10 -116z m560 0 c0
-88 -3 -115 -12 -112 -9 3 -14 35 -16 103 -3 102 0 125 18 125 6 0 10 -43 10
-116z m560 0 c0 -88 -3 -115 -12 -112 -9 3 -14 35 -16 103 -3 102 0 125 18
125 6 0 10 -43 10 -116z m560 0 c0 -88 -3 -115 -12 -112 -9 3 -14 35 -16 103
-3 102 0 125 18 125 6 0 10 -43 10 -116z m-1993 44 l20 -43 22 43 c12 23 26
42 31 42 6 0 -1 -22 -15 -50 -14 -27 -25 -63 -25 -80 0 -20 -5 -30 -15 -30
-10 0 -15 10 -15 30 0 17 -9 48 -20 70 -21 42 -25 60 -12 60 4 0 17 -19 29
-42z m-1047 -128 c0 -5 -25 -10 -55 -10 -30 0 -55 5 -55 10 0 6 25 10 55 10
30 0 55 -4 55 -10z m560 0 c0 -5 -25 -10 -55 -10 -30 0 -55 5 -55 10 0 6 25
10 55 10 30 0 55 -4 55 -10z m1120 0 c0 -5 -25 -10 -55 -10 -30 0 -55 5 -55
10 0 6 25 10 55 10 30 0 55 -4 55 -10z m560 0 c0 -5 -25 -10 -55 -10 -30 0
-55 5 -55 10 0 6 25 10 55 10 30 0 55 -4 55 -10z m560 0 c0 -5 -25 -10 -55
-10 -30 0 -55 5 -55 10 0 6 25 10 55 10 30 0 55 -4 55 -10z m-2560 -186 c0
-88 -3 -115 -12 -112 -9 3 -14 35 -16 103 -3 102 0 125 18 125 6 0 10 -43 10
-116z m560 0 c0 -88 -3 -115 -12 -112 -9 3 -14 35 -16 103 -3 102 0 125 18
125 6 0 10 -43 10 -116z m560 0 c0 -88 -3 -115 -12 -112 -9 3 -14 35 -16 103
-3 102 0 125 18 125 6 0 10 -43 10 -116z m560 0 c0 -88 -3 -115 -12 -112 -9 3
-14 35 -16 103 -3 102 0 125 18 125 6 0 10 -43 10 -116z m560 0 c0 -88 -3
-115 -12 -112 -9 3 -14 35 -16 103 -3 102 0 125 18 125 6 0 10 -43 10 -116z
m560 0 c0 -88 -3 -115 -12 -112 -9 3 -14 35 -16 103 -3 102 0 125 18 125 6 0
10 -43 10 -116z m-1939 76 c21 -12 26 -59 7 -78 -9 -9 -9 -18 0 -37 15 -31 15
-35 2 -35 -5 0 -16 14 -25 30 -9 17 -22 30 -30 30 -10 0 -15 -10 -15 -30 0
-20 -5 -30 -15 -30 -12 0 -15 15 -15 73 0 41 3 77 7 80 10 11 62 8 84 -3z
m-1101 -160 c0 -5 -25 -10 -55 -10 -30 0 -55 5 -55 10 0 6 25 10 55 10 30 0
55 -4 55 -10z m560 0 c0 -5 -25 -10 -55 -10 -30 0 -55 5 -55 10 0 6 25 10 55
10 30 0 55 -4 55 -10z m1120 0 c0 -5 -25 -10 -55 -10 -30 0 -55 5 -55 10 0 6
25 10 55 10 30 0 55 -4 55 -10z m560 0 c0 -5 -25 -10 -55 -10 -30 0 -55 5 -55
10 0 6 25 10 55 10 30 0 55 -4 55 -10z m560 0 c0 -5 -25 -10 -55 -10 -30 0
-55 5 -55 10 0 6 25 10 55 10 30 0 55 -4 55 -10z m-2560 -186 c0 -88 -3 -115
-12 -112 -9 3 -14 35 -16 103 -3 102 0 125 18 125 6 0 10 -43 10 -116z m560 0
c0 -88 -3 -115 -12 -112 -9 3 -14 35 -16 103 -3 102 0 125 18 125 6 0 10 -43
10 -116z m560 0 c0 -88 -3 -115 -12 -112 -9 3 -14 35 -16 103 -3 102 0 125 18
125 6 0 10 -43 10 -116z m560 0 c0 -88 -3 -115 -12 -112 -9 3 -14 35 -16 103
-3 102 0 125 18 125 6 0 10 -43 10 -116z m560 0 c0 -88 -3 -115 -12 -112 -9 3
-14 35 -16 103 -3 102 0 125 18 125 6 0 10 -43 10 -116z m560 0 c0 -88 -3
-115 -12 -112 -9 3 -14 35 -16 103 -3 102 0 125 18 125 6 0 10 -43 10 -116z
m-2553 44 l20 -43 22 43 c12 23 26 42 31 42 6 0 -1 -22 -15 -50 -14 -27 -25
-63 -25 -80 0 -20 -5 -30 -15 -30 -10 0 -15 10 -15 30 0 17 -9 48 -20 70 -21
42 -25 60 -12 60 4 0 17 -19 29 -42z m560 0 l20 -43 22 43 c12 23 26 42 31 42
6 0 -1 -22 -15 -50 -14 -27 -25 -63 -25 -80 0 -20 -5 -30 -15 -30 -10 0 -15
10 -15 30 0 17 -9 48 -20 70 -21 42 -25 60 -12 60 4 0 17 -19 29 -42z m614 32
c21 -12 26 -59 7 -78 -9 -9 -9 -18 0 -37 15 -31 15 -35 2 -35 -5 0 -16 14 -25
30 -9 17 -22 30 -30 30 -10 0 -15 -10 -15 -30 0 -20 -5 -30 -15 -30 -12 0 -15
15 -15 73 0 41 3 77 7 80 10 11 62 8 84 -3z m-1661 -160 c0 -5 -25 -10 -55
-10 -30 0 -55 5 -55 10 0 6 25 10 55 10 30 0 55 -4 55 -10z m2240 0 c0 -5 -25
-10 -55 -10 -30 0 -55 5 -55 10 0 6 25 10 55 10 30 0 55 -4 55 -10z m560 0 c0
-5 -25 -10 -55 -10 -30 0 -55 5 -55 10 0 6 25 10 55 10 30 0 55 -4 55 -10z
m-2560 -186 c0 -88 -3 -115 -12 -112 -9 3 -14 35 -16 103 -3 102 0 125 18 125
6 0 10 -43 10 -116z m560 0 c0 -88 -3 -115 -12 -112 -9 3 -14 35 -16 103 -3
102 0 125 18 125 6 0 10 -43 10 -116z m560 0 c0 -88 -3 -115 -12 -112 -9 3
-14 35 -16 103 -3 102 0 125 18 125 6 0 10 -43 10 -116z m560 0 c0 -88 -3
-115 -12 -112 -9 3 -14 35 -16 103 -3 102 0 125 18 125 6 0 10 -43 10 -116z
m560 0 c0 -88 -3 -115 -12 -112 -9 3 -14 35 -16 103 -3 102 0 125 18 125 6 0
10 -43 10 -116z m560 0 c0 -88 -3 -115 -12 -112 -9 3 -14 35 -16 103 -3 102 0
125 18 125 6 0 10 -43 10 -116z m-3113 44 l20 -43 22 43 c12 23 26 42 31 42 6
0 -1 -22 -15 -50 -14 -27 -25 -63 -25 -80 0 -20 -5 -30 -15 -30 -10 0 -15 10
-15 30 0 17 -9 48 -20 70 -21 42 -25 60 -12 60 4 0 17 -19 29 -42z m614 32
c21 -12 26 -59 7 -78 -9 -9 -9 -18 0 -37 15 -31 15 -35 2 -35 -5 0 -16 14 -25
30 -9 17 -22 30 -30 30 -10 0 -15 -10 -15 -30 0 -20 -5 -30 -15 -30 -12 0 -15
15 -15 73 0 41 3 77 7 80 10 11 62 8 84 -3z m560 0 c21 -12 26 -59 7 -78 -9
-9 -9 -18 0 -37 15 -31 15 -35 2 -35 -5 0 -16 14 -25 30 -9 17 -22 30 -30 30
-10 0 -15 -10 -15 -30 0 -20 -5 -30 -15 -30 -12 0 -15 15 -15 73 0 41 3 77 7
80 10 11 62 8 84 -3z m506 -32 l20 -43 22 43 c12 23 26 42 31 42 6 0 -1 -22
-15 -50 -14 -27 -25 -63 -25 -80 0 -20 -5 -30 -15 -30 -10 0 -15 10 -15 30 0
17 -9 48 -20 70 -21 42 -25 60 -12 60 4 0 17 -19 29 -42z m633 -128 c0 -5 -25
-10 -55 -10 -30 0 -55 5 -55 10 0 6 25 10 55 10 30 0 55 -4 55 -10z m560 0 c0
-5 -25 -10 -55 -10 -30 0 -55 5 -55 10 0 6 25 10 55 10 30 0 55 -4 55 -10z
m-2560 -186 c0 -88 -3 -115 -12 -112 -9 3 -14 35 -16 103 -3 102 0 125 18 125
6 0 10 -43 10 -116z m560 0 c0 -88 -3 -115 -12 -112 -9 3 -14 35 -16 103 -3
102 0 125 18 125 6 0 10 -43 10 -116z m560 0 c0 -88 -3 -115 -12 -112 -9 3
-14 35 -16 103 -3 102 0 125 18 125 6 0 10 -43 10 -116z m560 0 c0 -88 -3
-115 -12 -112 -9 3 -14 35 -16 103 -3 102 0 125 18 125 6 0 10 -43 10 -116z
m560 0 c0 -88 -3 -115 -12 -112 -9 3 -14 35 -16 103 -3 102 0 125 18 125 6 0
10 -43 10 -116z m560 0 c0 -88 -3 -115 -12 -112 -9 3 -14 35 -16 103 -3 102 0
125 18 125 6 0 10 -43 10 -116z m-3059 76 c21 -12 26 -59 7 -78 -9 -9 -9 -18
0 -37 15 -31 15 -35 2 -35 -5 0 -16 14 -25 30 -9 17 -22 30 -30 30 -10 0 -15
-10 -15 -30 0 -20 -5 -30 -15 -30 -12 0 -15 15 -15 73 0 41 3 77 7 80 10 11
62 8 84 -3z m506 -32 l20 -43 22 43 c12 23 26 42 31 42 6 0 -1 -22 -15 -50
-14 -27 -25 -63 -25 -80 0 -20 -5 -30 -15 -30 -10 0 -15 10 -15 30 0 17 -9 48
-20 70 -21 42 -25 60 -12 60 4 0 17 -19 29 -42z m614 32 c21 -12 26 -59 7 -78
-9 -9 -9 -18 0 -37 15 -31 15 -35 2 -35 -5 0 -16 14 -25 30 -9 17 -22 30 -30
30 -10 0 -15 -10 -15 -30 0 -20 -5 -30 -15 -30 -12 0 -15 15 -15 73 0 41 3 77
7 80 10 11 62 8 84 -3z m506 -32 l20 -43 22 43 c12 23 26 42 31 42 6 0 -1 -22
-15 -50 -14 -27 -25 -63 -25 -80 0 -20 -5 -30 -15 -30 -10 0 -15 10 -15 30 0
17 -9 48 -20 70 -21 42 -25 60 -12 60 4 0 17 -19 29 -42z m1174 32 c21 -12 26
-59 7 -78 -9 -9 -9 -18 0 -37 15 -31 15 -35 2 -35 -5 0 -16 14 -25 30 -9 17
-22 30 -30 30 -10 0 -15 -10 -15 -30 0 -20 -5 -30 -15 -30 -12 0 -15 15 -15
73 0 41 3 77 7 80 10 11 62 8 84 -3z m-541 -160 c0 -5 -25 -10 -55 -10 -30 0
-55 5 -55 10 0 6 25 10 55 10 30 0 55 -4 55 -10z"/>
<path d="M507 4674 c-4 -4 -7 -23 -7 -41 0 -30 3 -34 23 -31 18 2 22 9 22 38
0 33 -20 51 -38 34z"/>
<path d="M3592 4668 c-7 -7 -12 -25 -12 -40 0 -21 5 -28 19 -28 27 0 44 26 37
55 -7 27 -25 32 -44 13z"/>
<path d="M920 4690 c0 -25 4 -30 25 -30 14 0 28 7 31 15 8 20 -13 45 -37 45
-14 0 -19 -7 -19 -30z"/>
<path d="M367 4673 c-15 -14 -6 -23 24 -23 27 0 30 2 19 15 -13 16 -32 19 -43
8z"/>
<path d="M1347 4673 c-15 -14 -6 -23 24 -23 27 0 30 2 19 15 -13 16 -32 19
-43 8z"/>
<path d="M1767 4673 c-15 -14 -6 -23 24 -23 27 0 30 2 19 15 -13 16 -32 19
-43 8z"/>
<path d="M2330 4665 c-18 -22 -8 -60 15 -60 15 0 21 8 23 31 3 35 -19 52 -38
29z"/>
<path d="M3727 4673 c-15 -14 -6 -23 24 -23 27 0 30 2 19 15 -13 16 -32 19
-43 8z"/>
<path d="M1340 3610 c0 -25 4 -30 25 -30 14 0 28 7 31 15 8 20 -13 45 -37 45
-14 0 -19 -7 -19 -30z"/>
<path d="M1900 3340 c0 -25 4 -30 25 -30 14 0 28 7 31 15 8 20 -13 45 -37 45
-14 0 -19 -7 -19 -30z"/>
<path d="M780 3070 c0 -25 4 -30 25 -30 14 0 28 7 31 15 8 20 -13 45 -37 45
-14 0 -19 -7 -19 -30z"/>
<path d="M1340 3070 c0 -25 4 -30 25 -30 14 0 28 7 31 15 8 20 -13 45 -37 45
-14 0 -19 -7 -19 -30z"/>
<path d="M220 2800 c0 -25 4 -30 25 -30 14 0 28 7 31 15 8 20 -13 45 -37 45
-14 0 -19 -7 -19 -30z"/>
<path d="M1340 2800 c0 -25 4 -30 25 -30 14 0 28 7 31 15 8 20 -13 45 -37 45
-14 0 -19 -7 -19 -30z"/>
<path d="M3020 2800 c0 -25 4 -30 25 -30 14 0 28 7 31 15 8 20 -13 45 -37 45
-14 0 -19 -7 -19 -30z"/>
<path d="M4012 2238 c-7 -7 -12 -25 -12 -40 0 -21 5 -28 19 -28 27 0 44 26 37
55 -7 27 -25 32 -44 13z"/>
<path d="M367 2243 c-15 -14 -6 -23 24 -23 27 0 30 2 19 15 -13 16 -32 19 -43
8z"/>
<path d="M790 2235 c-18 -22 -8 -60 15 -60 15 0 21 8 23 31 3 35 -19 52 -38
29z"/>
<path d="M1767 2243 c-15 -14 -6 -23 24 -23 27 0 30 2 19 15 -13 16 -32 19
-43 8z"/>
<path d="M2187 2243 c-15 -14 -6 -23 24 -23 27 0 30 2 19 15 -13 16 -32 19
-43 8z"/>
<path d="M2750 2235 c-18 -22 -8 -60 15 -60 15 0 21 8 23 31 3 35 -19 52 -38
29z"/>
<path d="M4147 2243 c-15 -14 -6 -23 24 -23 27 0 30 2 19 15 -13 16 -32 19
-43 8z"/>
<path d="M1340 1180 c0 -25 4 -30 25 -30 14 0 28 7 31 15 8 20 -13 45 -37 45
-14 0 -19 -7 -19 -30z"/>
<path d="M1900 910 c0 -25 4 -30 25 -30 14 0 28 7 31 15 8 20 -13 45 -37 45
-14 0 -19 -7 -19 -30z"/>
<path d="M780 640 c0 -25 4 -30 25 -30 14 0 28 7 31 15 8 20 -13 45 -37 45
-14 0 -19 -7 -19 -30z"/>
<path d="M1340 640 c0 -25 4 -30 25 -30 14 0 28 7 31 15 8 20 -13 45 -37 45
-14 0 -19 -7 -19 -30z"/>
<path d="M220 370 c0 -25 4 -30 25 -30 14 0 28 7 31 15 8 20 -13 45 -37 45
-14 0 -19 -7 -19 -30z"/>
<path d="M1340 370 c0 -25 4 -30 25 -30 14 0 28 7 31 15 8 20 -13 45 -37 45
-14 0 -19 -7 -19 -30z"/>
<path d="M3020 370 c0 -25 4 -30 25 -30 14 0 28 7 31 15 8 20 -13 45 -37 45
-14 0 -19 -7 -19 -30z"/>
</g>
</svg>
