<?xml version="1.0" standalone="no"?>
<!DOCTYPE svg PUBLIC "-//W3C//DTD SVG 20010904//EN"
 "http://www.w3.org/TR/2001/REC-SVG-20010904/DTD/svg10.dtd">
<svg version="1.0" xmlns="http://www.w3.org/2000/svg"
 width="221.000000pt" height="221.000000pt" viewBox="0 0 221.000000 221.000000"
 preserveAspectRatio="xMidYMid meet">

<g transform="translate(0.000000,221.000000) scale(0.100000,-0.100000)"
fill="#000000" stroke="none">
<path d="M0 1103 l0 -1103 173 0 172 0 0 112 c0 80 3 112 13 115 9 4 12 -23
12 -111 l0 -116 268 0 267 0 0 112 c0 80 3 112 13 115 9 4 12 -23 12 -111 l0
-116 640 0 640 0 0 965 c0 765 -3 965 -12 966 -7 0 -26 2 -43 2 -29 2 -30 3
-33 60 -2 33 1 57 7 57 5 0 11 -21 13 -47 3 -40 6 -48 23 -48 17 0 20 8 23 48
2 26 7 47 13 47 5 0 9 36 9 80 l0 80 -640 -1 -640 0 0 -26 c0 -30 -24 -26 -28
5 -3 20 -6 21 -268 21 l-264 0 0 -25 c0 -32 -24 -27 -28 5 -4 22 -5 22 -173
19 l-169 -2 0 -1103z m2040 926 c0 -62 2 -71 20 -76 28 -8 25 -23 -5 -23 -31
0 -45 31 -45 101 0 37 -4 49 -15 49 -8 0 -15 5 -15 10 0 6 14 10 30 10 l30 0
0 -71z m-1910 52 c0 -6 -17 -11 -37 -13 -31 -2 -39 -7 -41 -25 -3 -20 1 -23
27 -23 17 0 31 -4 31 -10 0 -5 -13 -10 -30 -10 -25 0 -30 -4 -30 -25 0 -22 4
-25 40 -25 22 0 40 -4 40 -10 0 -5 -22 -10 -50 -10 l-50 0 0 80 0 80 50 0 c28
0 50 -4 50 -9z m821 -1 c22 -12 26 -59 7 -78 -10 -10 -8 -19 5 -42 16 -26 16
-30 3 -30 -9 0 -22 14 -31 30 -9 17 -22 30 -30 30 -10 0 -15 -10 -15 -30 0
-20 -5 -30 -15 -30 -12 0 -15 15 -15 73 0 41 3 77 7 80 10 11 62 8 84 -3z
m553 4 c26 -10 18 -25 -11 -22 -38 4 -43 -30 -8 -62 l25 -23 0 21 c0 12 5 22
11 22 8 0 10 -12 6 -34 -3 -18 -1 -38 4 -43 14 -14 -82 -14 -98 -1 -15 12 -17
54 -3 63 6 3 7 17 4 29 -9 38 29 66 70 50z m304 -12 c3 -9 -3 -11 -22 -6 -36
9 -56 -11 -56 -55 0 -44 14 -61 52 -61 15 0 28 -4 28 -10 0 -19 -69 -11 -90
10 -46 46 -5 146 57 138 15 -2 28 -9 31 -16z m-1458 -7 c0 -9 9 -15 24 -15 14
0 28 -4 31 -10 4 -6 -7 -10 -25 -10 -30 0 -31 -2 -28 -37 3 -33 7 -38 31 -41
36 -4 35 -22 -1 -22 -38 0 -52 17 -52 62 0 27 -4 38 -15 38 -8 0 -15 5 -15 10
0 6 7 10 15 10 8 0 15 7 15 15 0 8 5 15 10 15 6 0 10 -7 10 -15z m-160 -27 c0
-9 3 -9 12 0 32 32 68 -2 68 -64 0 -32 -4 -44 -15 -44 -11 0 -15 12 -15 44 0
25 -5 48 -10 51 -20 12 -40 -17 -40 -56 0 -22 -4 -39 -10 -39 -6 0 -10 27 -10
60 0 33 4 60 10 60 6 0 10 -5 10 -12z m342 -5 c10 -9 18 -24 18 -35 0 -14 -8
-18 -41 -18 -49 0 -50 -23 -1 -28 43 -4 41 -22 -2 -22 -40 0 -59 20 -59 62 0
51 48 74 85 41z m93 7 c4 -6 13 -5 25 2 14 9 22 9 34 -1 9 -8 16 -17 16 -22 0
-14 -28 -11 -33 4 -3 9 -7 9 -20 -2 -22 -17 -23 -71 -2 -71 8 0 15 -4 15 -10
0 -5 -18 -10 -40 -10 -22 0 -40 5 -40 10 0 6 5 10 10 10 6 0 10 18 10 40 0 22
-4 40 -10 40 -5 0 -10 5 -10 10 0 13 37 13 45 0z m467 -7 c38 -34 13 -103 -36
-103 -31 0 -49 24 -48 63 1 51 47 73 84 40z m74 -20 l8 -38 5 34 c9 50 27 49
37 -1 l8 -43 4 43 c2 28 7 42 15 39 12 -4 12 -19 1 -84 -7 -46 -29 -41 -41 10
-8 32 -11 36 -12 15 -1 -37 -11 -58 -26 -58 -12 0 -25 50 -25 98 0 36 17 25
26 -15z m766 20 c38 -34 13 -103 -36 -103 -31 0 -49 24 -48 63 1 51 47 73 84
40z m-1562 -299 c0 -88 -3 -115 -12 -112 -9 3 -14 35 -16 103 -3 102 0 125 18
125 6 0 10 -43 10 -116z m560 0 c0 -88 -3 -115 -12 -112 -9 3 -14 35 -16 103
-3 102 0 125 18 125 6 0 10 -43 10 -116z m-810 59 c17 -22 21 -37 17 -66 -7
-48 -22 -67 -55 -67 -40 0 -62 27 -62 77 0 76 58 109 100 56z m1120 0 c17 -22
21 -37 17 -66 -7 -48 -22 -67 -55 -67 -40 0 -62 27 -62 77 0 76 58 109 100 56z
m-870 -329 c0 -88 -3 -115 -12 -112 -9 3 -14 35 -16 103 -3 102 0 125 18 125
6 0 10 -43 10 -116z m560 0 c0 -88 -3 -115 -12 -112 -9 3 -14 35 -16 103 -3
102 0 125 18 125 6 0 10 -43 10 -116z m-311 55 l19 -31 16 31 c9 17 21 31 26
31 15 0 12 -11 -10 -48 l-21 -34 21 -35 c23 -39 24 -43 10 -43 -6 0 -16 11
-22 25 -6 14 -15 25 -20 25 -5 0 -14 -11 -20 -25 -6 -14 -17 -25 -25 -25 -10
0 -8 10 9 39 l23 39 -23 41 c-27 48 -11 56 17 10z m621 4 c17 -22 21 -37 17
-66 -7 -48 -22 -67 -55 -67 -40 0 -62 27 -62 77 0 76 58 109 100 56z m-870
-329 c0 -88 -3 -115 -12 -112 -9 3 -14 35 -16 103 -3 102 0 125 18 125 6 0 10
-43 10 -116z m560 0 c0 -88 -3 -115 -12 -112 -9 3 -14 35 -16 103 -3 102 0
125 18 125 6 0 10 -43 10 -116z m-871 55 l19 -31 16 31 c9 17 21 31 26 31 15
0 12 -11 -10 -48 l-21 -34 21 -35 c23 -39 24 -43 10 -43 -6 0 -16 11 -22 25
-6 14 -15 25 -20 25 -5 0 -14 -11 -20 -25 -6 -14 -17 -25 -25 -25 -10 0 -8 10
9 39 l23 39 -23 41 c-27 48 -11 56 17 10z m621 4 c17 -22 21 -37 17 -66 -7
-48 -22 -67 -55 -67 -40 0 -62 27 -62 77 0 76 58 109 100 56z m499 -4 l19 -31
16 31 c9 17 21 31 26 31 15 0 12 -11 -10 -48 l-21 -34 21 -35 c23 -39 24 -43
10 -43 -6 0 -16 11 -22 25 -6 14 -15 25 -20 25 -5 0 -14 -11 -20 -25 -6 -14
-17 -25 -25 -25 -10 0 -8 10 9 39 l23 39 -23 41 c-27 48 -11 56 17 10z m-1120
-270 l19 -31 16 31 c9 17 21 31 26 31 15 0 12 -11 -10 -48 l-21 -34 21 -35
c23 -39 24 -43 10 -43 -6 0 -16 11 -22 25 -6 14 -15 25 -20 25 -5 0 -14 -11
-20 -25 -6 -14 -17 -25 -25 -25 -10 0 -8 10 9 39 l23 39 -23 41 c-27 48 -11
56 17 10z m171 -5 c0 -24 -4 -34 -12 -32 -24 8 -22 68 2 68 5 0 10 -16 10 -36z
m465 26 c4 -6 -5 -10 -19 -10 -25 0 -26 -2 -26 -70 0 -56 -3 -70 -15 -70 -12
0 -15 14 -15 70 0 63 -2 70 -20 70 -11 0 -20 5 -20 10 0 6 24 10 54 10 30 0
58 -4 61 -10z m-295 -39 c0 -5 -12 -11 -27 -13 -37 -4 -40 -24 -3 -31 63 -13
45 -67 -21 -67 -22 0 -39 5 -39 10 0 6 16 10 36 10 40 0 43 21 4 30 -13 3 -28
13 -34 23 -9 15 -7 21 8 33 22 16 76 19 76 5z m352 -38 c3 -40 6 -48 23 -48
17 0 20 8 23 48 4 63 22 61 22 -3 0 -27 5 -50 10 -50 6 0 10 -4 10 -10 0 -5
-24 -8 -52 -7 l-53 2 -3 58 c-2 33 1 57 7 57 5 0 11 -21 13 -47z m153 37 c4
-6 13 -5 25 2 14 9 22 9 34 -1 9 -8 16 -17 16 -22 0 -14 -28 -11 -33 4 -3 9
-7 9 -20 -2 -22 -17 -23 -71 -2 -71 8 0 15 -4 15 -10 0 -5 -18 -10 -40 -10
-22 0 -40 5 -40 10 0 6 5 10 10 10 6 0 10 18 10 40 0 22 -4 40 -10 40 -5 0
-10 5 -10 10 0 13 37 13 45 0z m125 -2 c0 -9 3 -9 12 0 32 32 68 -2 68 -64 0
-32 -4 -44 -15 -44 -11 0 -15 12 -15 44 0 25 -5 48 -10 51 -20 12 -40 -17 -40
-56 0 -22 -4 -39 -10 -39 -6 0 -10 27 -10 60 0 33 4 60 10 60 6 0 10 -5 10
-12z m320 -3 c0 -8 -7 -15 -15 -15 -16 0 -20 12 -8 23 11 12 23 8 23 -8z m0
-90 c0 -8 -4 -15 -9 -15 -13 0 -22 16 -14 24 11 11 23 6 23 -9z m-980 -211 c0
-88 -3 -115 -12 -112 -9 3 -14 35 -16 103 -3 102 0 125 18 125 6 0 10 -43 10
-116z m560 0 c0 -88 -3 -115 -12 -112 -9 3 -14 35 -16 103 -3 102 0 125 18
125 6 0 10 -43 10 -116z m-810 59 c17 -22 21 -37 17 -66 -7 -48 -22 -67 -55
-67 -40 0 -62 27 -62 77 0 76 58 109 100 56z m499 -4 l19 -31 16 31 c9 17 21
31 26 31 15 0 12 -11 -10 -48 l-21 -34 21 -35 c23 -39 24 -43 10 -43 -6 0 -16
11 -22 25 -6 14 -15 25 -20 25 -5 0 -14 -11 -20 -25 -6 -14 -17 -25 -25 -25
-10 0 -8 10 9 39 l23 39 -23 41 c-27 48 -11 56 17 10z m621 4 c17 -22 21 -37
17 -66 -7 -48 -22 -67 -55 -67 -40 0 -62 27 -62 77 0 76 58 109 100 56z m-870
-329 c0 -88 -3 -115 -12 -112 -9 3 -14 35 -16 103 -3 102 0 125 18 125 6 0 10
-43 10 -116z m560 0 c0 -88 -3 -115 -12 -112 -9 3 -14 35 -16 103 -3 102 0
125 18 125 6 0 10 -43 10 -116z m-311 55 l19 -31 16 31 c9 17 21 31 26 31 15
0 12 -11 -10 -48 l-21 -34 21 -35 c23 -39 24 -43 10 -43 -6 0 -16 11 -22 25
-6 14 -15 25 -20 25 -5 0 -14 -11 -20 -25 -6 -14 -17 -25 -25 -25 -10 0 -8 10
9 39 l23 39 -23 41 c-27 48 -11 56 17 10z m621 4 c17 -22 21 -37 17 -66 -7
-48 -22 -67 -55 -67 -40 0 -62 27 -62 77 0 76 58 109 100 56z m-1181 -274 l19
-31 16 31 c9 17 21 31 26 31 15 0 12 -11 -10 -48 l-21 -34 21 -35 c23 -39 24
-43 10 -43 -6 0 -16 11 -22 25 -14 32 -25 32 -40 0 -6 -14 -17 -25 -25 -25
-10 0 -8 10 9 39 l23 39 -23 41 c-27 48 -11 56 17 10z m621 4 c17 -22 21 -37
17 -66 -7 -48 -22 -67 -55 -67 -40 0 -62 27 -62 77 0 76 58 109 100 56z m499
-4 l19 -31 16 31 c9 17 21 31 26 31 15 0 12 -11 -10 -48 l-21 -34 21 -35 c23
-39 24 -43 10 -43 -6 0 -16 11 -22 25 -14 32 -25 32 -40 0 -6 -14 -17 -25 -25
-25 -10 0 -8 10 9 39 l23 39 -23 41 c-27 48 -11 56 17 10z"/>
<path d="M890 2040 c0 -25 4 -30 25 -30 14 0 28 7 31 15 8 20 -13 45 -37 45
-14 0 -19 -7 -19 -30z"/>
<path d="M1442 1973 c2 -10 14 -19 26 -21 21 -3 22 -2 10 17 -16 25 -41 28
-36 4z"/>
<path d="M477 2023 c-15 -14 -6 -23 24 -23 27 0 30 2 19 15 -13 16 -32 19 -43
8z"/>
<path d="M1040 2015 c-18 -22 -8 -60 15 -60 15 0 21 8 23 31 3 35 -19 52 -38
29z"/>
<path d="M1880 2015 c-18 -22 -8 -60 15 -60 15 0 21 8 23 31 3 35 -19 52 -38
29z"/>
<path d="M50 1774 c-19 -48 -4 -94 29 -94 22 0 31 19 31 64 0 55 -43 77 -60
30z"/>
<path d="M1170 1774 c-19 -48 -4 -94 29 -94 22 0 31 19 31 64 0 55 -43 77 -60
30z"/>
<path d="M1170 1504 c-19 -48 -4 -94 29 -94 22 0 31 19 31 64 0 55 -43 77 -60
30z"/>
<path d="M610 1234 c-19 -48 -4 -94 29 -94 22 0 31 19 31 64 0 55 -43 77 -60
30z"/>
<path d="M50 694 c-19 -48 -4 -94 29 -94 22 0 31 19 31 64 0 55 -43 77 -60 30z"/>
<path d="M1170 694 c-19 -48 -4 -94 29 -94 22 0 31 19 31 64 0 55 -43 77 -60
30z"/>
<path d="M1170 424 c-19 -48 -4 -94 29 -94 22 0 31 19 31 64 0 55 -43 77 -60
30z"/>
<path d="M610 154 c-19 -48 -4 -94 29 -94 22 0 31 19 31 64 0 55 -43 77 -60
30z"/>
</g>
</svg>
